<?xml version="1.0" encoding="utf-8"?>
<!-- Generator: Adobe Illustrator 16.0.0, SVG Export Plug-In . SVG Version: 6.00 Build 0)  -->
<!DOCTYPE svg PUBLIC "-//W3C//DTD SVG 1.1//EN" "http://www.w3.org/Graphics/SVG/1.1/DTD/svg11.dtd">
<svg version="1.1" id="Vector" xmlns="http://www.w3.org/2000/svg" xmlns:xlink="http://www.w3.org/1999/xlink" x="0px" y="0px"
	 width="247.488px" height="286.485px" viewBox="0 0 247.488 286.485" enable-background="new 0 0 247.488 286.485"
	 xml:space="preserve">
<path fill="#446785" stroke="#000000" stroke-width="2" stroke-miterlimit="10" d="M110.904,100.152c0,0-30.5-20-60.25,0.75
	c0,0-41,21.75-22.5,91c10,34,56.75,69.75,67.5,70s12-6,18.25-5.75s43.25,4.25,52,3.75s57.25-28.25,60-100.75c0,0,1.25-66-49.75-80.5
	C147.404,72.152,110.904,100.152,110.904,100.152z"/>
<g>
	<defs>
		<path id="SVGID_1_" d="M110.904,100.152c0,0-30.5-20-60.25,0.75c0,0-41,21.75-22.5,91c10,34,56.75,69.75,67.5,70s12-6,18.25-5.75
			s43.25,4.25,52,3.75s57.25-28.25,60-100.75c0,0,1.25-66-49.75-80.5C147.404,72.152,110.904,100.152,110.904,100.152z"/>
	</defs>
	<clipPath id="SVGID_2_">
		<use xlink:href="#SVGID_1_"  overflow="visible"/>
	</clipPath>
	<path clip-path="url(#SVGID_2_)" fill="#1F4362" d="M41.904,220.242c39,12.16,175.848-42.022,158.75-128.09l166.25-12.25
		l-8.5,236.5l-416.5-8l1.5-64.122L41.904,220.242z"/>
	<use xlink:href="#SVGID_1_"  overflow="visible" fill="none" stroke="#000000" stroke-width="2" stroke-miterlimit="10"/>
</g>
<path fill="#FFFFFF" d="M29.904,127.184c0,0-11,26.844,25.875-5.156c14.375-13.75,16.904-19.586,15.404-28.692
	C71.183,93.335,43.694,96.951,29.904,127.184z"/>
<path fill="#446785" stroke="#000000" stroke-width="2" stroke-miterlimit="10" d="M49.154,31.402c0,0,21.5,40.5,59.5,54.5
	c0,6.085,0.003,8,0.003,8l5.833,0.037c0,0,0.327-7.446,0.414-13.537c6.75-19.25,29.75-58.25,29.75-58.25s-1.732-1.526-5.5-5.25
	c-18.25,12-27,59-27,59S103.904,22.152,49.154,31.402z"/>
<path fill="#FFFFFF" stroke="#000000" stroke-miterlimit="10" d="M105.029,163.902c0,0-36,1.75-36,35.5
	c0,15.875,12.375,25.875,27.375,25.875c20.5,0.875,54.75-27.875,65.5-27.375c13.125,0,25.375,25.875,36.875,26.375
	s20-23.875,20-37.125s-5.125-19.375-14-19.25s-35.004,22.685-42.625,22.125C148.529,189.027,125.654,162.027,105.029,163.902z"/>
<g>
	<defs>
		<path id="SVGID_3_" d="M105.029,163.902c0,0-36,1.75-36,35.5c0,15.875,12.375,25.875,27.375,25.875
			c20.5,0.875,54.75-27.875,65.5-27.375c13.125,0,25.375,25.875,36.875,26.375s20-23.875,20-37.125s-5.125-19.375-14-19.25
			s-35.004,22.685-42.625,22.125C148.529,189.027,125.654,162.027,105.029,163.902z"/>
	</defs>
	<clipPath id="SVGID_4_">
		<use xlink:href="#SVGID_3_"  overflow="visible"/>
	</clipPath>
	<path clip-path="url(#SVGID_4_)" d="M68.279,203.715h4.25v-2.5h8.875v4.25h0.562v1.438h0.688v2.375h0.688v-2h1.812v2h1.25v-4.031
		h0.438v-1.531h1v1.531h0.812v1.719h1.125v-1.719h1v-1.656h1.062v-2.375h0.5v-2.25l1.688-1.688l1.812,1.812v2.062h0.5v5.625h0.438
		v1.688h0.938v2.812h1.188v-4.062h0.562v-1.562h2.562v-1.375h4.688v-4.125h1v-1.312h3.25v-9.062h1.25l-0.183-4.106l1.058,0.044
		l0.062-2.312v-1.5h1.25v-1.625h0.438v-3.688h0.312v-8.75h0.875v8.875h0.375v3.625h0.625v1.562h0.688v1.375h0.812v2.688h0.812v3.594
		h0.625v18.156h0.75v-10.5h12.125v8.688h1.312v-1.688h4.562v5.312h1.625v-8.188h8.188v-1h1.5v-1.062h0.5v-2h0.75v-2.14h0.375v-5.579
		h0.75v5.579h0.562v2.265h0.75v3.875l20.812,8.562h6.438v-3.875h1.75v-2.625h1v-3.75h0.75v-4h0.5v-3.062h0.875v3.312h0.688v3.375
		h1.125v4.188v5.812h1.188v-5.688h2.25v1.75h2.312v1h3.812v0.875h0.75v6.688h8.812v-2.125h0.812v-4.75h0.875v-1.625h0.75v1.375
		l0.531,0.531v4.219h26.031c0,0,40.178,71.438-7.724,73.688s-193.901,0-193.901,0l-21.5-50.25l8.5-34L68.279,203.715z"/>
</g>
<path fill="#FFFFFF" stroke="#000000" stroke-miterlimit="10" d="M156.404,212.09c8.491-0.392,15.812,1.5,16.688,10.625
	c0,3.188,0,4.562-2,5.562c-0.562,0.281-3.375,0.688-4.75-3.375s-4.125-5.5-8.875-5.375c-12.375-0.25-14.562,8.703-18.875,8.82
	s-3.938-4.133-2.625-5.32S144.216,212.652,156.404,212.09z"/>
<path fill="#FFFFFF" stroke="#000000" stroke-miterlimit="10" d="M143.904,252.653c14.664-0.291,35-6,35-12.5
	s-2.667-4.334-7.75-1.584s-9.417,5.702-27.25,5.702s-17-6.952-24.417-6.952c-7.417,0-6.25,7.75,0.667,10.417
	S131.321,252.903,143.904,252.653z"/>
</svg>
